<?xml version="1.0" encoding="UTF-8" standalone="no"?>
<!DOCTYPE svg PUBLIC "-//W3C//DTD SVG 1.1//EN"
 "http://www.w3.org/Graphics/SVG/1.1/DTD/svg11.dtd">
<!-- Generated by graphviz version 2.40.1 (20161225.0304)
 -->
<!-- Title: D Pages: 1 -->
<svg width="494pt" height="260pt"
 viewBox="0.00 0.00 493.94 260.00" xmlns="http://www.w3.org/2000/svg" xmlns:xlink="http://www.w3.org/1999/xlink">
<g id="graph0" class="graph" transform="scale(1 1) rotate(0) translate(4 256)">
<title>D</title>
<polygon fill="#ffffff" stroke="transparent" points="-4,4 -4,-256 489.9394,-256 489.9394,4 -4,4"/>
<!-- bls12_381 -->
<g id="node1" class="node">
<title>bls12_381</title>
<ellipse fill="none" stroke="#000000" cx="244.797" cy="-234" rx="47.3916" ry="18"/>
<text text-anchor="middle" x="244.797" y="-230.3" font-family="Times,serif" font-size="14.00" fill="#000000">bls12_381</text>
</g>
<!-- ibe -->
<g id="node2" class="node">
<title>ibe</title>
<ellipse fill="none" stroke="#000000" cx="244.797" cy="-162" rx="27" ry="18"/>
<text text-anchor="middle" x="244.797" y="-158.3" font-family="Times,serif" font-size="14.00" fill="#000000">ibe</text>
</g>
<!-- bls12_381&#45;&gt;ibe -->
<g id="edge1" class="edge">
<title>bls12_381&#45;&gt;ibe</title>
<path fill="none" stroke="#000000" d="M244.797,-215.8314C244.797,-208.131 244.797,-198.9743 244.797,-190.4166"/>
<polygon fill="#000000" stroke="#000000" points="248.2971,-190.4132 244.797,-180.4133 241.2971,-190.4133 248.2971,-190.4132"/>
</g>
<!-- irmaseal&#45;core -->
<g id="node3" class="node">
<title>irmaseal&#45;core</title>
<ellipse fill="none" stroke="#000000" cx="244.797" cy="-90" rx="59.2899" ry="18"/>
<text text-anchor="middle" x="244.797" y="-86.3" font-family="Times,serif" font-size="14.00" fill="#000000">irmaseal&#45;core</text>
</g>
<!-- ibe&#45;&gt;irmaseal&#45;core -->
<g id="edge2" class="edge">
<title>ibe&#45;&gt;irmaseal&#45;core</title>
<path fill="none" stroke="#000000" d="M244.797,-143.8314C244.797,-136.131 244.797,-126.9743 244.797,-118.4166"/>
<polygon fill="#000000" stroke="#000000" points="248.2971,-118.4132 244.797,-108.4133 241.2971,-118.4133 248.2971,-118.4132"/>
</g>
<!-- irmaseal&#45;cli -->
<g id="node4" class="node">
<title>irmaseal&#45;cli</title>
<ellipse fill="none" stroke="#000000" cx="244.797" cy="-18" rx="52.7911" ry="18"/>
<text text-anchor="middle" x="244.797" y="-14.3" font-family="Times,serif" font-size="14.00" fill="#000000">irmaseal&#45;cli</text>
</g>
<!-- irmaseal&#45;core&#45;&gt;irmaseal&#45;cli -->
<g id="edge3" class="edge">
<title>irmaseal&#45;core&#45;&gt;irmaseal&#45;cli</title>
<path fill="none" stroke="#000000" d="M244.797,-71.8314C244.797,-64.131 244.797,-54.9743 244.797,-46.4166"/>
<polygon fill="#000000" stroke="#000000" points="248.2971,-46.4132 244.797,-36.4133 241.2971,-46.4133 248.2971,-46.4132"/>
</g>
<!-- irmaseal&#45;pkgd -->
<g id="node6" class="node">
<title>irmaseal&#45;pkgd</title>
<ellipse fill="none" stroke="#000000" cx="112.797" cy="-18" rx="61.99" ry="18"/>
<text text-anchor="middle" x="112.797" y="-14.3" font-family="Times,serif" font-size="14.00" fill="#000000">irmaseal&#45;pkgd</text>
</g>
<!-- irmaseal&#45;core&#45;&gt;irmaseal&#45;pkgd -->
<g id="edge4" class="edge">
<title>irmaseal&#45;core&#45;&gt;irmaseal&#45;pkgd</title>
<path fill="none" stroke="#000000" d="M215.829,-74.1993C196.7898,-63.8143 171.6716,-50.1134 151.0029,-38.8396"/>
<polygon fill="#000000" stroke="#000000" points="152.6085,-35.7286 142.1535,-34.0127 149.2565,-41.8739 152.6085,-35.7286"/>
</g>
<!-- irmaseal&#45;thunderbird -->
<g id="node9" class="node">
<title>irmaseal&#45;thunderbird</title>
<ellipse fill="none" stroke="#000000" cx="400.797" cy="-18" rx="85.2851" ry="18"/>
<text text-anchor="middle" x="400.797" y="-14.3" font-family="Times,serif" font-size="14.00" fill="#000000">irmaseal&#45;thunderbird</text>
</g>
<!-- irmaseal&#45;core&#45;&gt;irmaseal&#45;thunderbird -->
<g id="edge7" class="edge">
<title>irmaseal&#45;core&#45;&gt;irmaseal&#45;thunderbird</title>
<path fill="none" stroke="#000000" d="M277.4997,-74.9064C300.2368,-64.4124 330.8324,-50.2914 355.8571,-38.7415"/>
<polygon fill="#000000" stroke="#000000" points="357.5344,-41.8222 365.1473,-34.4537 354.6009,-35.4665 357.5344,-41.8222"/>
</g>
<!-- irmars -->
<g id="node5" class="node">
<title>irmars</title>
<ellipse fill="none" stroke="#000000" cx="33.797" cy="-90" rx="33.5952" ry="18"/>
<text text-anchor="middle" x="33.797" y="-86.3" font-family="Times,serif" font-size="14.00" fill="#000000">irmars</text>
</g>
<!-- irmars&#45;&gt;irmaseal&#45;pkgd -->
<g id="edge5" class="edge">
<title>irmars&#45;&gt;irmaseal&#45;pkgd</title>
<path fill="none" stroke="#000000" d="M50.9388,-74.3771C61.189,-65.0351 74.4343,-52.9635 86.0371,-42.3888"/>
<polygon fill="#000000" stroke="#000000" points="88.7171,-44.6818 93.7504,-35.3589 84.0018,-39.5081 88.7171,-44.6818"/>
</g>
<!-- irmago -->
<g id="node7" class="node">
<title>irmago</title>
<ellipse fill="none" stroke="#000000" cx="121.797" cy="-90" rx="36.2938" ry="18"/>
<text text-anchor="middle" x="121.797" y="-86.3" font-family="Times,serif" font-size="14.00" fill="#000000">irmago</text>
</g>
<!-- irmago&#45;&gt;irmaseal&#45;pkgd -->
<g id="edge6" class="edge">
<title>irmago&#45;&gt;irmaseal&#45;pkgd</title>
<path fill="none" stroke="#000000" stroke-dasharray="5,2" d="M119.5259,-71.8314C118.5634,-64.131 117.4188,-54.9743 116.3491,-46.4166"/>
<polygon fill="#000000" stroke="#000000" points="119.8121,-45.9019 115.0987,-36.4133 112.8661,-46.7702 119.8121,-45.9019"/>
</g>
<!-- irmajs -->
<g id="node8" class="node">
<title>irmajs</title>
<ellipse fill="none" stroke="#000000" cx="400.797" cy="-90" rx="33.2948" ry="18"/>
<text text-anchor="middle" x="400.797" y="-86.3" font-family="Times,serif" font-size="14.00" fill="#000000">irmajs</text>
</g>
<!-- irmajs&#45;&gt;irmaseal&#45;thunderbird -->
<g id="edge8" class="edge">
<title>irmajs&#45;&gt;irmaseal&#45;thunderbird</title>
<path fill="none" stroke="#000000" d="M400.797,-71.8314C400.797,-64.131 400.797,-54.9743 400.797,-46.4166"/>
<polygon fill="#000000" stroke="#000000" points="404.2971,-46.4132 400.797,-36.4133 397.2971,-46.4133 404.2971,-46.4132"/>
</g>
</g>
</svg>
